# xmcd
#
# Track frame offsets:
#	150
#	12637
#	25337
#	36240
#	54865
#	65695
#	79975
#	95300
#	119507
#	131432
#	145180
#
# Disc length: 2174 seconds
#
# Revision: 1
# Processed by: cddbd v1.4PL0 Copyright (c) Steve Scherf et al.
# Submitted via: EasyCDDAExtractor 5.0.7
#
DISCID=96087c0b
DTITLE=Scratch - Skin Deep
DYEAR=1999
DGENRE=R&B
TTITLE0=Jennie
TTITLE1=Te-ni-nee-ni-ni
TTITLE2=Proud Mary
TTITLE3=You threw your love on me too strong
TTITLE4=Talkin` woman blues
TTITLE5=Hand in hand
TTITLE6=Oh pretty woman
TTITLE7=Down on bended knees
TTITLE8=My babe
TTITLE9=Give me back my wig
TTITLE10=Manic Depression
EXTD=
EXTT0=
EXTT1=
EXTT2=
EXTT3=
EXTT4=
EXTT5=
EXTT6=
EXTT7=
EXTT8=
EXTT9=
EXTT10=
PLAYORDER=
